<?xml version="1.0" encoding="utf-8"?>
<!-- Generator: Adobe Illustrator 18.1.1, SVG Export Plug-In . SVG Version: 6.00 Build 0)  -->
<svg version="1.1" id="Capa_1" xmlns="http://www.w3.org/2000/svg" xmlns:xlink="http://www.w3.org/1999/xlink" x="0px" y="0px"
	 viewBox="0 0 68 68" enable-background="new 0 0 68 68" xml:space="preserve">
<g>
	<path fill="#FFFFFF" d="M8.5,51.8c0.6-0.6,0.6-1.6,0-2.2c-0.6-0.6-1.6-0.6-2.2,0l-5.9,5.9c-0.6,0.6-0.6,1.6,0,2.2
		c0.3,0.3,0.7,0.5,1.1,0.5s0.8-0.2,1.1-0.5L8.5,51.8z"/>
	<path fill="#FFFFFF" d="M47.2,10.6c-1.4,1.4-2.1,3.2-2.1,5.1c0,1.9,0.8,3.7,2.1,5.1c1.4,1.4,3.3,2.1,5.1,2.1c1.9,0,3.7-0.7,5.1-2.1
		c1.4-1.4,2.1-3.2,2.1-5.1c0-1.9-0.8-3.7-2.1-5.1C54.6,7.7,50,7.7,47.2,10.6z M55.3,18.6c-1.6,1.6-4.2,1.6-5.9,0
		c-0.8-0.8-1.2-1.8-1.2-2.9c0-1.1,0.4-2.1,1.2-2.9c0.8-0.8,1.9-1.2,2.9-1.2c1.1,0,2.1,0.4,2.9,1.2c0.8,0.8,1.2,1.8,1.2,2.9
		C56.5,16.8,56,17.8,55.3,18.6z"/>
	<path fill="#FFFFFF" d="M13.4,54.4c-0.6-0.6-1.6-0.6-2.2,0l-8.2,8.2c-0.6,0.6-0.6,1.6,0,2.2c0.3,0.3,0.7,0.5,1.1,0.5
		s0.8-0.2,1.1-0.5l8.2-8.2C14,56,14,55,13.4,54.4z"/>
	<path fill="#FFFFFF" d="M67,2.1c-0.1-0.5-0.6-0.9-1.1-1.1c-5.6-1.6-11.7-1.3-17.6,0.9c-4.6,1.6-9,4.4-12.2,7.6l-4.8,4.8l-17.3,2.7
		c-0.3,0.1-0.6,0.2-0.9,0.4L2.2,28.5c-0.4,0.4-0.6,1.1-0.3,1.6c0.2,0.6,0.8,1,1.4,1l10.9,0.5l-2.7,2.7c-0.6,0.6-0.6,1.6,0,2.2
		l1.6,1.6l-4.8,7.3c-0.4,0.6-0.3,1.4,0.2,1.9l12.3,12.3c0.5,0.5,1.3,0.6,1.9,0.2l7.3-4.8l1.6,1.6c0.6,0.6,1.6,0.6,2.2,0l2.7-2.7
		l0.5,10.9c0,0.6,0.4,1.1,1,1.4c0.2,0.1,0.4,0.1,0.6,0.1c0.4,0,0.8-0.2,1.1-0.5l11.1-11.1c0.2-0.2,0.4-0.5,0.4-0.9l2.7-17.3l4.8-4.8
		c3.2-3.2,5.9-7.6,7.6-12.2C68.3,13.7,68.6,7.7,67,2.1z M22,56.5L11.5,46l3.7-5.7l5.2,5.2l-0.6,0.6c-0.6,0.6-0.6,1.6,0,2.2
		c0.6,0.6,1.6,0.6,2.2,0l0.6-0.6l5.2,5.2L22,56.5z M56.4,29.6l-5.1,5.1c0,0,0,0,0,0l-5.3,5.3c-0.6,0.6-0.6,1.6,0,2.2
		c0.6,0.6,1.6,0.6,2.2,0l2-2l-2,12.7l-8.3,8.3l-0.4-10.3l4.3-4.3c0.6-0.6,0.6-1.6,0-2.2c-0.6-0.6-1.6-0.6-2.2,0l-4.8,4.8
		c0,0,0,0,0,0l-4.1,4.1L31.3,52c0,0,0,0,0,0l-6.5-6.5l18.6-18.6c0.6-0.6,0.6-1.6,0-2.2c-0.6-0.6-1.6-0.6-2.2,0L22.6,43.3l-6.5-6.5
		c0,0,0,0,0,0l-1.4-1.4l4.1-4.1c0,0,0,0,0,0l4.8-4.8c0.6-0.6,0.6-1.6,0-2.2c-0.6-0.6-1.6-0.6-2.2,0l-4.3,4.3L6.8,28.2l8.3-8.3
		l12.7-2l-2,2l2.2,2.2l5.3-5.3c0,0,0,0,0,0l5.1-5.1C42.7,7.3,52.8,1,64.3,3.7C67,15.2,60.7,25.3,56.4,29.6z"/>
	<path fill="#FFFFFF" d="M16.2,59.5l-5.9,5.9c-0.6,0.6-0.6,1.6,0,2.2c0.3,0.3,0.7,0.5,1.1,0.5c0.4,0,0.8-0.2,1.1-0.5l5.9-5.9
		c0.6-0.6,0.6-1.6,0-2.2C17.8,58.9,16.8,58.9,16.2,59.5z"/>
</g>
</svg>
