<?xml version="1.0" encoding="utf-8"?>
<!-- Generator: Adobe Illustrator 18.1.1, SVG Export Plug-In . SVG Version: 6.00 Build 0)  -->
<svg version="1.1" id="Capa_1" xmlns="http://www.w3.org/2000/svg" xmlns:xlink="http://www.w3.org/1999/xlink" x="0px" y="0px"
	 viewBox="0 0 68 68" enable-background="new 0 0 68 68" xml:space="preserve">
<g>
	<path fill="#FFFFFF" d="M58.6,24L55,19.3l0.8-5.9c0.1-0.7-0.3-1.3-0.9-1.6l-5.5-2.3l-2.3-5.5c-0.3-0.6-0.9-1-1.6-0.9l-5.9,0.8
		l-4.7-3.6c-0.5-0.4-1.3-0.4-1.8,0l-4.7,3.6l-5.9-0.8c-0.7-0.1-1.3,0.3-1.6,0.9l-2.3,5.5l-5.5,2.3c-0.6,0.3-1,0.9-0.9,1.6l0.8,5.9
		L9.4,24c-0.4,0.5-0.4,1.3,0,1.8l3.6,4.7l-0.8,5.9c-0.1,0.7,0.3,1.3,0.9,1.6l5.5,2.3l2.3,5.5c0.2,0.5,0.6,0.8,1.1,0.9v19.9
		c0,0.5,0.3,1.1,0.8,1.3c0.5,0.3,1.1,0.2,1.5,0l9.6-6.1l9.6,6.1c0.2,0.2,0.5,0.2,0.8,0.2c0.2,0,0.5-0.1,0.7-0.2
		c0.5-0.3,0.8-0.8,0.8-1.3V46.6c0.5-0.1,0.9-0.4,1.1-0.9l2.3-5.5l5.5-2.3c0.6-0.3,1-0.9,0.9-1.6L55,30.5l3.6-4.7
		C59,25.2,59,24.5,58.6,24z M34.8,58.6c-0.5-0.3-1.1-0.3-1.6,0l-8.1,5.2V46.3l3.3-0.4l4.7,3.6c0.3,0.2,0.6,0.3,0.9,0.3
		s0.6-0.1,0.9-0.3l4.7-3.6l3.3,0.4v17.5L34.8,58.6z M52.2,29.2c-0.2,0.3-0.3,0.7-0.3,1.1l0.7,5.3l-5,2.1c-0.4,0.2-0.7,0.4-0.8,0.8
		l-2.1,5l-5.3-0.7c-0.4-0.1-0.8,0.1-1.1,0.3L34,46.3l-4.3-3.3c-0.3-0.2-0.6-0.3-0.9-0.3c-0.1,0-0.1,0-0.2,0l-5.3,0.7l-2.1-5
		c-0.2-0.4-0.4-0.7-0.8-0.8l-5-2.1l0.7-5.3c0.1-0.4-0.1-0.8-0.3-1.1l-3.3-4.3l3.3-4.3c0.2-0.3,0.3-0.7,0.3-1.1l-0.7-5.3l5-2.1
		c0.4-0.2,0.7-0.4,0.8-0.8l2.1-5L28.6,7C29,7,29.4,6.9,29.7,6.7L34,3.4l4.3,3.3C38.6,6.9,39,7,39.4,7l5.3-0.7l2.1,5
		c0.2,0.4,0.4,0.7,0.8,0.8l5,2.1l-0.7,5.3c-0.1,0.4,0.1,0.8,0.3,1.1l3.3,4.3L52.2,29.2z"/>
	<path fill="#FFFFFF" d="M24.8,15.2c0.3,0,0.7-0.1,1-0.3c2.3-1.9,5.2-2.9,8.2-2.9c0.8,0,1.5-0.7,1.5-1.5S34.8,8.9,34,8.9
		c-3.7,0-7.3,1.3-10.1,3.6c-0.6,0.5-0.7,1.5-0.2,2.1C24,15,24.4,15.2,24.8,15.2z"/>
	<path fill="#FFFFFF" d="M39.3,9.8c-0.8-0.3-1.6,0.1-1.9,0.9c-0.3,0.8,0.1,1.6,0.9,1.9c5.1,1.8,8.6,6.7,8.6,12.2
		c0,7.1-5.8,12.9-12.9,12.9S21.1,32,21.1,24.9c0-2.5,0.7-5,2.1-7.1c0.5-0.7,0.3-1.6-0.4-2.1c-0.7-0.5-1.6-0.3-2.1,0.4
		c-1.7,2.6-2.6,5.6-2.6,8.8c0,8.8,7.2,15.9,15.9,15.9s15.9-7.2,15.9-15.9C49.9,18.1,45.7,12.1,39.3,9.8z"/>
</g>
</svg>
