<?xml version="1.0" encoding="utf-8"?>
<!-- Generator: Adobe Illustrator 18.1.1, SVG Export Plug-In . SVG Version: 6.00 Build 0)  -->
<svg version="1.1" id="Capa_1" xmlns="http://www.w3.org/2000/svg" xmlns:xlink="http://www.w3.org/1999/xlink" x="0px" y="0px"
	 viewBox="0 0 68 68" enable-background="new 0 0 68 68" xml:space="preserve">
<g>
	<path fill="#FFFFFF" d="M4.6,21.5h58.8c0,0,0,0,0,0c0.8,0,1.5-0.7,1.5-1.5c0-0.6-0.3-1.1-0.8-1.3L34.8,0.2c-0.5-0.3-1.1-0.3-1.6,0
		L3.8,18.7c-0.6,0.4-0.8,1.1-0.7,1.7C3.3,21.1,3.9,21.5,4.6,21.5z M34,3.4l24,15.1H10L34,3.4z"/>
	<path fill="#FFFFFF" d="M66.5,57.2h-1.5v-4.6c0-0.8-0.7-1.5-1.5-1.5h-1.5V27.7h1.5c0.8,0,1.5-0.7,1.5-1.5s-0.7-1.5-1.5-1.5H4.6
		c-0.8,0-1.5,0.7-1.5,1.5s0.7,1.5,1.5,1.5h1.5v23.4H4.6c-0.8,0-1.5,0.7-1.5,1.5v4.6H1.5c-0.8,0-1.5,0.7-1.5,1.5v7.7
		C0,67.3,0.7,68,1.5,68h64.9c0.8,0,1.5-0.7,1.5-1.5v-7.7C68,57.9,67.3,57.2,66.5,57.2z M58.8,51.1h-3.1V27.7h3.1V51.1z M46.6,51.1
		V27.7h6.1v23.4H46.6z M40.4,51.1V27.7h3.1v23.4H40.4z M30.7,51.1V27.7h6.7v23.4H30.7z M24.5,51.1V27.7h3.1v23.4H24.5z M15.4,51.1
		V27.7h6.1v23.4H15.4z M9.2,27.7h3.1v23.4H9.2V27.7z M64.9,64.9H3.1v-4.6h12.4c0.8,0,1.5-0.7,1.5-1.5c0-0.8-0.7-1.5-1.5-1.5H6.2
		v-3.1h55.7v3.1H20.7c-0.8,0-1.5,0.7-1.5,1.5c0,0.8,0.7,1.5,1.5,1.5h44.2V64.9z"/>
</g>
</svg>
