<?xml version="1.0" encoding="utf-8"?>
<!-- Generator: Adobe Illustrator 18.1.1, SVG Export Plug-In . SVG Version: 6.00 Build 0)  -->
<svg version="1.1" id="Capa_1" xmlns="http://www.w3.org/2000/svg" xmlns:xlink="http://www.w3.org/1999/xlink" x="0px" y="0px"
	 viewBox="0 0 68 68" enable-background="new 0 0 68 68" xml:space="preserve">
<g>
	<path fill="#FFFFFF" d="M6.2,44.8v11.5c0,0.8,0.7,1.5,1.5,1.5h33c0.8,0,1.5-0.7,1.5-1.5V44.8c0-0.8-0.7-1.5-1.5-1.5h-33
		C6.8,43.2,6.2,43.9,6.2,44.8z M39.2,54.8H27.6l8.5-8.5h3.1V54.8z M9.2,46.3h11.6l-4.3,4.3c-0.6,0.6-0.6,1.6,0,2.2
		c0.3,0.3,0.7,0.5,1.1,0.5s0.8-0.2,1.1-0.5l6.5-6.5h6.5l-8.5,8.5h-14V46.3z"/>
	<path fill="#FFFFFF" d="M52.9,27.8c0.8,0,1.6-0.6,1.6-1.5l1.1-23.3h6.3l1.4,29.6c0,0.8,0.7,1.5,1.5,1.5c0,0,0,0,0.1,0
		c0.8,0,1.5-0.8,1.5-1.6l-1.5-31c0-0.8-0.7-1.5-1.5-1.5h-9.2c-0.8,0-1.5,0.6-1.5,1.5l-1.2,24.8C51.4,27.1,52,27.8,52.9,27.8z"/>
	<path fill="#FFFFFF" d="M67.2,37.3L34.7,20.2c-0.5-0.3-1.1-0.2-1.5,0c-0.5,0.3-0.7,0.8-0.7,1.3v6l-14-7.4c-0.5-0.3-1.1-0.2-1.5,0
		c-0.5,0.3-0.7,0.8-0.7,1.3v6l-14-7.4c-0.5-0.3-1.1-0.2-1.5,0C0.3,20.5,0,21,0,21.5v44.9C0,67.3,0.7,68,1.5,68h45.3h13.4h6.2
		c0.8,0,1.5-0.7,1.5-1.5V38.6C68,38,67.7,37.5,67.2,37.3z M48.4,64.9V46.3h10.4v18.6H48.4z M64.9,64.9h-3.1V44.8
		c0-0.8-0.7-1.5-1.5-1.5H46.9c-0.8,0-1.5,0.7-1.5,1.5v20.2H3.1V24.1l14,7.4c0.5,0.3,1.1,0.2,1.5,0c0.5-0.3,0.7-0.8,0.7-1.3v-6
		l14,7.4c0.5,0.3,1.1,0.2,1.5,0c0.5-0.3,0.7-0.8,0.7-1.3v-6l29.4,15.5V64.9z"/>
</g>
</svg>
