<?xml version="1.0" encoding="utf-8"?>
<!-- Generator: Adobe Illustrator 18.1.1, SVG Export Plug-In . SVG Version: 6.00 Build 0)  -->
<svg version="1.2" baseProfile="tiny" id="Слой_1"
	 xmlns="http://www.w3.org/2000/svg" xmlns:xlink="http://www.w3.org/1999/xlink" x="0px" y="0px" viewBox="0 0 57.7 7.6"
	 xml:space="preserve">
<g>
	<path fill="#C99350" d="M5.9,7H5c0.1-0.1,0.1-0.2,0.1-0.3l0-4.7L3.2,6.8L1.3,2l0,4.7c0,0.1,0,0.2,0.1,0.3H0.4
		c0.1-0.1,0.1-0.2,0.1-0.3l0-5.5c0-0.1,0-0.2-0.1-0.3h0.9c0,0,0,0,1.8,4.5C5,1,5,0.9,5,0.9h0.9C5.8,1,5.8,1.1,5.8,1.2l0,5.5
		C5.8,6.8,5.8,6.9,5.9,7z"/>
	<path fill="#C99350" d="M12,7l-0.9-2.3c-0.7,0.1-1.9,0.4-2.4,1.1L8.3,7H7.4c0.1-0.1,0.1-0.2,0.2-0.3l2.1-5.8h0.7l2.2,5.8
		c0,0.1,0.1,0.2,0.2,0.3H12z M11,4.3l-0.9-2.4l-1,2.9C9.6,4.5,10.5,4.4,11,4.3z"/>
	<path fill="#C99350" d="M18.5,5.4c0,0.9-0.9,1.6-2.1,1.6c-1.2,0-2.1-0.7-2.1-0.7l0.4-0.7c0,0,0.6,1.1,1.7,1.1c1,0,1.2-0.7,1.2-1.1
		c0-1.5-3.1-1.2-3.1-3.3c0-1,0.9-1.5,1.8-1.5c1.1,0,1.7,0.7,1.7,0.7l-0.4,0.7c0,0-0.4-1.1-1.4-1.1c-0.8,0-1,0.6-1,0.9
		C15.4,4.1,18.5,3.2,18.5,5.4z"/>
	<path fill="#C99350" d="M25.3,0.9v0.5c-0.1-0.1-0.2,0-0.3,0l-2,0v5.4c0,0.2,0.1,0.3,0.1,0.3h-0.9c0.1,0,0.1-0.1,0.1-0.3V1.3l-1.9,0
		c-0.1,0-0.2,0-0.3,0V0.9H25.3z"/>
	<path fill="#C99350" d="M30.7,6.5V7H27c0.1,0,0.1-0.1,0.1-0.3V1.2c0-0.1,0-0.2-0.1-0.3h3.7v0.5c0-0.1-0.1,0-0.3,0l-2.6,0v2.3
		c0,0,0.2-0.1,0.6-0.1h2.1v0.4h-2.1c-0.4,0-0.6,0.2-0.6,0.4v2.3l2.6,0C30.6,6.5,30.7,6.5,30.7,6.5z"/>
	<path fill="#C99350" d="M36.5,6.7l-2-2.7h-0.8v2.7c0,0.1,0,0.2,0.1,0.3h-0.9c0.1-0.1,0.1-0.2,0.1-0.3V1.2c0-0.3-0.1-0.3-0.1-0.3
		l2,0c0.7,0,1.8,0.3,1.8,1.5c0,1.3-1.5,1.5-1.5,1.5l2.4,3h-1.1C36.6,6.9,36.6,6.9,36.5,6.7z M34.5,3.6c0.3,0,1.4-0.1,1.4-1.2
		c0-1-0.9-1.1-1.1-1.1h-1.1h0v2.3H34.5z"/>
	<path fill="#C99350" d="M42.4,7.1c0,0-3,0.2-3-3.1c0-3.4,3-3.1,3-3.1c0,0,3-0.2,3,3.1C45.3,7.3,42.4,7.1,42.4,7.1z M40.3,3.4
		c-0.7,2.6,1.2,3.1,1.4,3.1c0.2,0,2.1,0.5,2.7-2.1c0.6-2.6-1.4-3.1-1.4-3.2C42.9,1.3,40.9,0.8,40.3,3.4z"/>
	<path fill="#C99350" d="M48.2,7h-0.9c0.1,0,0.1-0.1,0.1-0.3V1.2c0-0.1,0-0.2-0.1-0.3h3.7v0.5c0-0.1-0.1,0-0.3,0l-2.6,0v2.3
		c0,0,0.2-0.1,0.6-0.1h2.1v0.4h-2.1c-0.4,0-0.6,0.2-0.6,0.4v2.4C48.1,6.9,48.2,7,48.2,7z"/>
	<path fill="#C99350" d="M54.1,7h-0.9c0.1,0,0.1-0.1,0.1-0.3V1.2c0-0.1,0-0.2-0.1-0.3h3.7v0.5c0-0.1-0.1,0-0.3,0l-2.6,0v2.3
		c0,0,0.2-0.1,0.6-0.1h2.1v0.4h-2.1c-0.4,0-0.6,0.2-0.6,0.4v2.4C54,6.9,54.1,7,54.1,7z"/>
</g>
<g>
</g>
<g>
</g>
<g>
</g>
<g>
</g>
<g>
</g>
<g>
</g>
<g>
</g>
<g>
</g>
<g>
</g>
<g>
</g>
<g>
</g>
<g>
</g>
<g>
</g>
<g>
</g>
<g>
</g>
</svg>
